<mxfile host="app.diagrams.net" agent="Mozilla/5.0 (Windows NT 10.0; Win64; x64) AppleWebKit/537.36 (KHTML, like Gecko) Chrome/129.0.0.0 Safari/537.36 Edg/129.0.0.0" version="24.7.16">
  <diagram name="Page-1" id="4qzahEPba1LaJp59g3VK">
    <mxGraphModel grid="1" page="1" gridSize="10" guides="1" tooltips="1" connect="1" arrows="1" fold="1" pageScale="1" pageWidth="827" pageHeight="1169" math="0" shadow="0">
      <root>
        <mxCell id="0" />
        <mxCell id="1" parent="0" />
        <mxCell id="kXg24N_eneEXeIf3qhJb-1" value="User" style="swimlane;fontStyle=1;align=center;verticalAlign=top;childLayout=stackLayout;horizontal=1;startSize=25.400000678168404;horizontalStack=0;resizeParent=1;resizeParentMax=0;resizeLast=0;collapsible=0;marginBottom=0;" vertex="1" parent="1">
          <mxGeometry x="495" y="206" width="401" height="233.4000006781684" as="geometry" />
        </mxCell>
        <mxCell id="kXg24N_eneEXeIf3qhJb-2" value="-int id" style="text;strokeColor=none;fillColor=none;align=left;verticalAlign=top;spacingLeft=4;spacingRight=4;overflow=hidden;rotatable=0;points=[[0,0.5],[1,0.5]];portConstraint=eastwest;" vertex="1" parent="kXg24N_eneEXeIf3qhJb-1">
          <mxGeometry y="25.400000678168404" width="401" height="25" as="geometry" />
        </mxCell>
        <mxCell id="kXg24N_eneEXeIf3qhJb-3" value="-String name" style="text;strokeColor=none;fillColor=none;align=left;verticalAlign=top;spacingLeft=4;spacingRight=4;overflow=hidden;rotatable=0;points=[[0,0.5],[1,0.5]];portConstraint=eastwest;" vertex="1" parent="kXg24N_eneEXeIf3qhJb-1">
          <mxGeometry y="50.400000678168404" width="401" height="25" as="geometry" />
        </mxCell>
        <mxCell id="kXg24N_eneEXeIf3qhJb-4" value="-String password" style="text;strokeColor=none;fillColor=none;align=left;verticalAlign=top;spacingLeft=4;spacingRight=4;overflow=hidden;rotatable=0;points=[[0,0.5],[1,0.5]];portConstraint=eastwest;" vertex="1" parent="kXg24N_eneEXeIf3qhJb-1">
          <mxGeometry y="75.4000006781684" width="401" height="25" as="geometry" />
        </mxCell>
        <mxCell id="kXg24N_eneEXeIf3qhJb-5" value="-Boolean isVerified" style="text;strokeColor=none;fillColor=none;align=left;verticalAlign=top;spacingLeft=4;spacingRight=4;overflow=hidden;rotatable=0;points=[[0,0.5],[1,0.5]];portConstraint=eastwest;" vertex="1" parent="kXg24N_eneEXeIf3qhJb-1">
          <mxGeometry y="100.4000006781684" width="401" height="25" as="geometry" />
        </mxCell>
        <mxCell id="kXg24N_eneEXeIf3qhJb-6" style="line;strokeWidth=1;fillColor=none;align=left;verticalAlign=middle;spacingTop=-1;spacingLeft=3;spacingRight=3;rotatable=0;labelPosition=right;points=[];portConstraint=eastwest;strokeColor=inherit;" vertex="1" parent="kXg24N_eneEXeIf3qhJb-1">
          <mxGeometry y="125.4000006781684" width="401" height="8" as="geometry" />
        </mxCell>
        <mxCell id="kXg24N_eneEXeIf3qhJb-7" value="+register(email, password) : : bool" style="text;strokeColor=none;fillColor=none;align=left;verticalAlign=top;spacingLeft=4;spacingRight=4;overflow=hidden;rotatable=0;points=[[0,0.5],[1,0.5]];portConstraint=eastwest;" vertex="1" parent="kXg24N_eneEXeIf3qhJb-1">
          <mxGeometry y="133.4000006781684" width="401" height="25" as="geometry" />
        </mxCell>
        <mxCell id="kXg24N_eneEXeIf3qhJb-8" value="+login(email, password) : : bool" style="text;strokeColor=none;fillColor=none;align=left;verticalAlign=top;spacingLeft=4;spacingRight=4;overflow=hidden;rotatable=0;points=[[0,0.5],[1,0.5]];portConstraint=eastwest;" vertex="1" parent="kXg24N_eneEXeIf3qhJb-1">
          <mxGeometry y="158.4000006781684" width="401" height="25" as="geometry" />
        </mxCell>
        <mxCell id="kXg24N_eneEXeIf3qhJb-9" value="+resetPassword(email) : : bool" style="text;strokeColor=none;fillColor=none;align=left;verticalAlign=top;spacingLeft=4;spacingRight=4;overflow=hidden;rotatable=0;points=[[0,0.5],[1,0.5]];portConstraint=eastwest;" vertex="1" parent="kXg24N_eneEXeIf3qhJb-1">
          <mxGeometry y="183.4000006781684" width="401" height="25" as="geometry" />
        </mxCell>
        <mxCell id="kXg24N_eneEXeIf3qhJb-10" value="+changePassword(oldPassword, newPassword) : : bool" style="text;strokeColor=none;fillColor=none;align=left;verticalAlign=top;spacingLeft=4;spacingRight=4;overflow=hidden;rotatable=0;points=[[0,0.5],[1,0.5]];portConstraint=eastwest;" vertex="1" parent="kXg24N_eneEXeIf3qhJb-1">
          <mxGeometry y="208.4000006781684" width="401" height="25" as="geometry" />
        </mxCell>
        <mxCell id="kXg24N_eneEXeIf3qhJb-11" value="Student" style="swimlane;fontStyle=1;align=center;verticalAlign=top;childLayout=stackLayout;horizontal=1;startSize=28.720001220703125;horizontalStack=0;resizeParent=1;resizeParentMax=0;resizeLast=0;collapsible=0;marginBottom=0;" vertex="1" parent="1">
          <mxGeometry x="20" y="548" width="174" height="65.72000122070312" as="geometry" />
        </mxCell>
        <mxCell id="kXg24N_eneEXeIf3qhJb-12" style="line;strokeWidth=1;fillColor=none;align=left;verticalAlign=middle;spacingTop=-1;spacingLeft=3;spacingRight=3;rotatable=0;labelPosition=right;points=[];portConstraint=eastwest;strokeColor=inherit;" vertex="1" parent="kXg24N_eneEXeIf3qhJb-11">
          <mxGeometry y="28.720001220703125" width="174" height="8" as="geometry" />
        </mxCell>
        <mxCell id="kXg24N_eneEXeIf3qhJb-13" value="+getStudentID() : : int" style="text;strokeColor=none;fillColor=none;align=left;verticalAlign=top;spacingLeft=4;spacingRight=4;overflow=hidden;rotatable=0;points=[[0,0.5],[1,0.5]];portConstraint=eastwest;" vertex="1" parent="kXg24N_eneEXeIf3qhJb-11">
          <mxGeometry y="36.720001220703125" width="174" height="29" as="geometry" />
        </mxCell>
        <mxCell id="kXg24N_eneEXeIf3qhJb-14" value="Admin" style="swimlane;fontStyle=1;align=center;verticalAlign=top;childLayout=stackLayout;horizontal=1;startSize=28.720001220703125;horizontalStack=0;resizeParent=1;resizeParentMax=0;resizeLast=0;collapsible=0;marginBottom=0;" vertex="1" parent="1">
          <mxGeometry x="244" y="548" width="163" height="65.72000122070312" as="geometry" />
        </mxCell>
        <mxCell id="kXg24N_eneEXeIf3qhJb-15" style="line;strokeWidth=1;fillColor=none;align=left;verticalAlign=middle;spacingTop=-1;spacingLeft=3;spacingRight=3;rotatable=0;labelPosition=right;points=[];portConstraint=eastwest;strokeColor=inherit;" vertex="1" parent="kXg24N_eneEXeIf3qhJb-14">
          <mxGeometry y="28.720001220703125" width="163" height="8" as="geometry" />
        </mxCell>
        <mxCell id="kXg24N_eneEXeIf3qhJb-16" value="+getAdminID() : : int" style="text;strokeColor=none;fillColor=none;align=left;verticalAlign=top;spacingLeft=4;spacingRight=4;overflow=hidden;rotatable=0;points=[[0,0.5],[1,0.5]];portConstraint=eastwest;" vertex="1" parent="kXg24N_eneEXeIf3qhJb-14">
          <mxGeometry y="36.720001220703125" width="163" height="29" as="geometry" />
        </mxCell>
        <mxCell id="kXg24N_eneEXeIf3qhJb-17" value="Clubs_Committee" style="swimlane;fontStyle=1;align=center;verticalAlign=top;childLayout=stackLayout;horizontal=1;startSize=28.720001220703125;horizontalStack=0;resizeParent=1;resizeParentMax=0;resizeLast=0;collapsible=0;marginBottom=0;" vertex="1" parent="1">
          <mxGeometry x="457" y="548" width="147" height="65.72000122070312" as="geometry" />
        </mxCell>
        <mxCell id="kXg24N_eneEXeIf3qhJb-18" style="line;strokeWidth=1;fillColor=none;align=left;verticalAlign=middle;spacingTop=-1;spacingLeft=3;spacingRight=3;rotatable=0;labelPosition=right;points=[];portConstraint=eastwest;strokeColor=inherit;" vertex="1" parent="kXg24N_eneEXeIf3qhJb-17">
          <mxGeometry y="28.720001220703125" width="147" height="8" as="geometry" />
        </mxCell>
        <mxCell id="kXg24N_eneEXeIf3qhJb-19" value="+getID() : : int" style="text;strokeColor=none;fillColor=none;align=left;verticalAlign=top;spacingLeft=4;spacingRight=4;overflow=hidden;rotatable=0;points=[[0,0.5],[1,0.5]];portConstraint=eastwest;" vertex="1" parent="kXg24N_eneEXeIf3qhJb-17">
          <mxGeometry y="36.720001220703125" width="147" height="29" as="geometry" />
        </mxCell>
        <mxCell id="kXg24N_eneEXeIf3qhJb-20" value="Profile" style="swimlane;fontStyle=1;align=center;verticalAlign=top;childLayout=stackLayout;horizontal=1;startSize=26.899998982747395;horizontalStack=0;resizeParent=1;resizeParentMax=0;resizeLast=0;collapsible=0;marginBottom=0;" vertex="1" parent="1">
          <mxGeometry x="654" y="504" width="370" height="169.89999898274738" as="geometry" />
        </mxCell>
        <mxCell id="kXg24N_eneEXeIf3qhJb-21" value="-int userID" style="text;strokeColor=none;fillColor=none;align=left;verticalAlign=top;spacingLeft=4;spacingRight=4;overflow=hidden;rotatable=0;points=[[0,0.5],[1,0.5]];portConstraint=eastwest;" vertex="1" parent="kXg24N_eneEXeIf3qhJb-20">
          <mxGeometry y="26.899998982747395" width="370" height="27" as="geometry" />
        </mxCell>
        <mxCell id="kXg24N_eneEXeIf3qhJb-22" value="-String name" style="text;strokeColor=none;fillColor=none;align=left;verticalAlign=top;spacingLeft=4;spacingRight=4;overflow=hidden;rotatable=0;points=[[0,0.5],[1,0.5]];portConstraint=eastwest;" vertex="1" parent="kXg24N_eneEXeIf3qhJb-20">
          <mxGeometry y="53.89999898274739" width="370" height="27" as="geometry" />
        </mxCell>
        <mxCell id="kXg24N_eneEXeIf3qhJb-23" value="-String bio" style="text;strokeColor=none;fillColor=none;align=left;verticalAlign=top;spacingLeft=4;spacingRight=4;overflow=hidden;rotatable=0;points=[[0,0.5],[1,0.5]];portConstraint=eastwest;" vertex="1" parent="kXg24N_eneEXeIf3qhJb-20">
          <mxGeometry y="80.89999898274739" width="370" height="27" as="geometry" />
        </mxCell>
        <mxCell id="kXg24N_eneEXeIf3qhJb-24" value="-String profilePicture" style="text;strokeColor=none;fillColor=none;align=left;verticalAlign=top;spacingLeft=4;spacingRight=4;overflow=hidden;rotatable=0;points=[[0,0.5],[1,0.5]];portConstraint=eastwest;" vertex="1" parent="kXg24N_eneEXeIf3qhJb-20">
          <mxGeometry y="107.89999898274739" width="370" height="27" as="geometry" />
        </mxCell>
        <mxCell id="kXg24N_eneEXeIf3qhJb-25" style="line;strokeWidth=1;fillColor=none;align=left;verticalAlign=middle;spacingTop=-1;spacingLeft=3;spacingRight=3;rotatable=0;labelPosition=right;points=[];portConstraint=eastwest;strokeColor=inherit;" vertex="1" parent="kXg24N_eneEXeIf3qhJb-20">
          <mxGeometry y="134.89999898274738" width="370" height="8" as="geometry" />
        </mxCell>
        <mxCell id="kXg24N_eneEXeIf3qhJb-26" value="+updateProfile(name, bio, profilePicture) : : bool" style="text;strokeColor=none;fillColor=none;align=left;verticalAlign=top;spacingLeft=4;spacingRight=4;overflow=hidden;rotatable=0;points=[[0,0.5],[1,0.5]];portConstraint=eastwest;" vertex="1" parent="kXg24N_eneEXeIf3qhJb-20">
          <mxGeometry y="142.89999898274738" width="370" height="27" as="geometry" />
        </mxCell>
        <mxCell id="kXg24N_eneEXeIf3qhJb-27" value="AuthenticationController" style="swimlane;fontStyle=1;align=center;verticalAlign=top;childLayout=stackLayout;horizontal=1;startSize=25.91111077202691;horizontalStack=0;resizeParent=1;resizeParentMax=0;resizeLast=0;collapsible=0;marginBottom=0;" vertex="1" parent="1">
          <mxGeometry x="1075" y="526" width="272" height="111.91111077202692" as="geometry" />
        </mxCell>
        <mxCell id="kXg24N_eneEXeIf3qhJb-28" style="line;strokeWidth=1;fillColor=none;align=left;verticalAlign=middle;spacingTop=-1;spacingLeft=3;spacingRight=3;rotatable=0;labelPosition=right;points=[];portConstraint=eastwest;strokeColor=inherit;" vertex="1" parent="kXg24N_eneEXeIf3qhJb-27">
          <mxGeometry y="25.91111077202691" width="272" height="8" as="geometry" />
        </mxCell>
        <mxCell id="kXg24N_eneEXeIf3qhJb-29" value="+register(RegistrationForm) : : User" style="text;strokeColor=none;fillColor=none;align=left;verticalAlign=top;spacingLeft=4;spacingRight=4;overflow=hidden;rotatable=0;points=[[0,0.5],[1,0.5]];portConstraint=eastwest;" vertex="1" parent="kXg24N_eneEXeIf3qhJb-27">
          <mxGeometry y="33.91111077202691" width="272" height="26" as="geometry" />
        </mxCell>
        <mxCell id="kXg24N_eneEXeIf3qhJb-30" value="+login(LoginForm) : : User" style="text;strokeColor=none;fillColor=none;align=left;verticalAlign=top;spacingLeft=4;spacingRight=4;overflow=hidden;rotatable=0;points=[[0,0.5],[1,0.5]];portConstraint=eastwest;" vertex="1" parent="kXg24N_eneEXeIf3qhJb-27">
          <mxGeometry y="59.91111077202691" width="272" height="26" as="geometry" />
        </mxCell>
        <mxCell id="kXg24N_eneEXeIf3qhJb-31" value="+logout(userID) : : void" style="text;strokeColor=none;fillColor=none;align=left;verticalAlign=top;spacingLeft=4;spacingRight=4;overflow=hidden;rotatable=0;points=[[0,0.5],[1,0.5]];portConstraint=eastwest;" vertex="1" parent="kXg24N_eneEXeIf3qhJb-27">
          <mxGeometry y="85.91111077202692" width="272" height="26" as="geometry" />
        </mxCell>
        <mxCell id="kXg24N_eneEXeIf3qhJb-32" value="PasswordController" style="swimlane;fontStyle=1;align=center;verticalAlign=top;childLayout=stackLayout;horizontal=1;startSize=26.91428484235491;horizontalStack=0;resizeParent=1;resizeParentMax=0;resizeLast=0;collapsible=0;marginBottom=0;" vertex="1" parent="1">
          <mxGeometry x="1396" y="537" width="456" height="88.9142848423549" as="geometry" />
        </mxCell>
        <mxCell id="kXg24N_eneEXeIf3qhJb-33" style="line;strokeWidth=1;fillColor=none;align=left;verticalAlign=middle;spacingTop=-1;spacingLeft=3;spacingRight=3;rotatable=0;labelPosition=right;points=[];portConstraint=eastwest;strokeColor=inherit;" vertex="1" parent="kXg24N_eneEXeIf3qhJb-32">
          <mxGeometry y="26.91428484235491" width="456" height="8" as="geometry" />
        </mxCell>
        <mxCell id="kXg24N_eneEXeIf3qhJb-34" value="+resetPassword(email) : : bool" style="text;strokeColor=none;fillColor=none;align=left;verticalAlign=top;spacingLeft=4;spacingRight=4;overflow=hidden;rotatable=0;points=[[0,0.5],[1,0.5]];portConstraint=eastwest;" vertex="1" parent="kXg24N_eneEXeIf3qhJb-32">
          <mxGeometry y="34.91428484235491" width="456" height="27" as="geometry" />
        </mxCell>
        <mxCell id="kXg24N_eneEXeIf3qhJb-35" value="+changePassword(userID, oldPassword, newPassword) : : bool" style="text;strokeColor=none;fillColor=none;align=left;verticalAlign=top;spacingLeft=4;spacingRight=4;overflow=hidden;rotatable=0;points=[[0,0.5],[1,0.5]];portConstraint=eastwest;" vertex="1" parent="kXg24N_eneEXeIf3qhJb-32">
          <mxGeometry y="61.91428484235491" width="456" height="27" as="geometry" />
        </mxCell>
        <mxCell id="kXg24N_eneEXeIf3qhJb-36" value="EmailVerificationService" style="swimlane;fontStyle=1;align=center;verticalAlign=top;childLayout=stackLayout;horizontal=1;startSize=26.91428484235491;horizontalStack=0;resizeParent=1;resizeParentMax=0;resizeLast=0;collapsible=0;marginBottom=0;" vertex="1" parent="1">
          <mxGeometry x="1067" y="723" width="287" height="88.9142848423549" as="geometry" />
        </mxCell>
        <mxCell id="kXg24N_eneEXeIf3qhJb-37" style="line;strokeWidth=1;fillColor=none;align=left;verticalAlign=middle;spacingTop=-1;spacingLeft=3;spacingRight=3;rotatable=0;labelPosition=right;points=[];portConstraint=eastwest;strokeColor=inherit;" vertex="1" parent="kXg24N_eneEXeIf3qhJb-36">
          <mxGeometry y="26.91428484235491" width="287" height="8" as="geometry" />
        </mxCell>
        <mxCell id="kXg24N_eneEXeIf3qhJb-38" value="+sendVerificationEmail(email) : : bool" style="text;strokeColor=none;fillColor=none;align=left;verticalAlign=top;spacingLeft=4;spacingRight=4;overflow=hidden;rotatable=0;points=[[0,0.5],[1,0.5]];portConstraint=eastwest;" vertex="1" parent="kXg24N_eneEXeIf3qhJb-36">
          <mxGeometry y="34.91428484235491" width="287" height="27" as="geometry" />
        </mxCell>
        <mxCell id="kXg24N_eneEXeIf3qhJb-39" value="+verifyEmail(token) : : bool" style="text;strokeColor=none;fillColor=none;align=left;verticalAlign=top;spacingLeft=4;spacingRight=4;overflow=hidden;rotatable=0;points=[[0,0.5],[1,0.5]];portConstraint=eastwest;" vertex="1" parent="kXg24N_eneEXeIf3qhJb-36">
          <mxGeometry y="61.91428484235491" width="287" height="27" as="geometry" />
        </mxCell>
        <mxCell id="kXg24N_eneEXeIf3qhJb-40" value="ProfileManagementController" style="swimlane;fontStyle=1;align=center;verticalAlign=top;childLayout=stackLayout;horizontal=1;startSize=26.91428484235491;horizontalStack=0;resizeParent=1;resizeParentMax=0;resizeLast=0;collapsible=0;marginBottom=0;" vertex="1" parent="1">
          <mxGeometry x="694" y="723" width="291" height="88.9142848423549" as="geometry" />
        </mxCell>
        <mxCell id="kXg24N_eneEXeIf3qhJb-41" style="line;strokeWidth=1;fillColor=none;align=left;verticalAlign=middle;spacingTop=-1;spacingLeft=3;spacingRight=3;rotatable=0;labelPosition=right;points=[];portConstraint=eastwest;strokeColor=inherit;" vertex="1" parent="kXg24N_eneEXeIf3qhJb-40">
          <mxGeometry y="26.91428484235491" width="291" height="8" as="geometry" />
        </mxCell>
        <mxCell id="kXg24N_eneEXeIf3qhJb-42" value="+getProfile(userID) : : Profile" style="text;strokeColor=none;fillColor=none;align=left;verticalAlign=top;spacingLeft=4;spacingRight=4;overflow=hidden;rotatable=0;points=[[0,0.5],[1,0.5]];portConstraint=eastwest;" vertex="1" parent="kXg24N_eneEXeIf3qhJb-40">
          <mxGeometry y="34.91428484235491" width="291" height="27" as="geometry" />
        </mxCell>
        <mxCell id="kXg24N_eneEXeIf3qhJb-43" value="+updateProfile(userID, Profile) : : bool" style="text;strokeColor=none;fillColor=none;align=left;verticalAlign=top;spacingLeft=4;spacingRight=4;overflow=hidden;rotatable=0;points=[[0,0.5],[1,0.5]];portConstraint=eastwest;" vertex="1" parent="kXg24N_eneEXeIf3qhJb-40">
          <mxGeometry y="61.91428484235491" width="291" height="27" as="geometry" />
        </mxCell>
        <mxCell id="kXg24N_eneEXeIf3qhJb-44" value="BlogPost" style="swimlane;fontStyle=1;align=center;verticalAlign=top;childLayout=stackLayout;horizontal=1;startSize=25.1;horizontalStack=0;resizeParent=1;resizeParentMax=0;resizeLast=0;collapsible=0;marginBottom=0;" vertex="1" parent="1">
          <mxGeometry x="1857" y="195" width="258" height="258.1" as="geometry" />
        </mxCell>
        <mxCell id="kXg24N_eneEXeIf3qhJb-45" value="-int id" style="text;strokeColor=none;fillColor=none;align=left;verticalAlign=top;spacingLeft=4;spacingRight=4;overflow=hidden;rotatable=0;points=[[0,0.5],[1,0.5]];portConstraint=eastwest;" vertex="1" parent="kXg24N_eneEXeIf3qhJb-44">
          <mxGeometry y="25.1" width="258" height="25" as="geometry" />
        </mxCell>
        <mxCell id="kXg24N_eneEXeIf3qhJb-46" value="-int userID" style="text;strokeColor=none;fillColor=none;align=left;verticalAlign=top;spacingLeft=4;spacingRight=4;overflow=hidden;rotatable=0;points=[[0,0.5],[1,0.5]];portConstraint=eastwest;" vertex="1" parent="kXg24N_eneEXeIf3qhJb-44">
          <mxGeometry y="50.1" width="258" height="25" as="geometry" />
        </mxCell>
        <mxCell id="kXg24N_eneEXeIf3qhJb-47" value="-String title" style="text;strokeColor=none;fillColor=none;align=left;verticalAlign=top;spacingLeft=4;spacingRight=4;overflow=hidden;rotatable=0;points=[[0,0.5],[1,0.5]];portConstraint=eastwest;" vertex="1" parent="kXg24N_eneEXeIf3qhJb-44">
          <mxGeometry y="75.1" width="258" height="25" as="geometry" />
        </mxCell>
        <mxCell id="kXg24N_eneEXeIf3qhJb-48" value="-String content" style="text;strokeColor=none;fillColor=none;align=left;verticalAlign=top;spacingLeft=4;spacingRight=4;overflow=hidden;rotatable=0;points=[[0,0.5],[1,0.5]];portConstraint=eastwest;" vertex="1" parent="kXg24N_eneEXeIf3qhJb-44">
          <mxGeometry y="100.1" width="258" height="25" as="geometry" />
        </mxCell>
        <mxCell id="kXg24N_eneEXeIf3qhJb-49" value="-List tags" style="text;strokeColor=none;fillColor=none;align=left;verticalAlign=top;spacingLeft=4;spacingRight=4;overflow=hidden;rotatable=0;points=[[0,0.5],[1,0.5]];portConstraint=eastwest;" vertex="1" parent="kXg24N_eneEXeIf3qhJb-44">
          <mxGeometry y="125.1" width="258" height="25" as="geometry" />
        </mxCell>
        <mxCell id="kXg24N_eneEXeIf3qhJb-50" value="-PostType type" style="text;strokeColor=none;fillColor=none;align=left;verticalAlign=top;spacingLeft=4;spacingRight=4;overflow=hidden;rotatable=0;points=[[0,0.5],[1,0.5]];portConstraint=eastwest;" vertex="1" parent="kXg24N_eneEXeIf3qhJb-44">
          <mxGeometry y="150.1" width="258" height="25" as="geometry" />
        </mxCell>
        <mxCell id="kXg24N_eneEXeIf3qhJb-51" style="line;strokeWidth=1;fillColor=none;align=left;verticalAlign=middle;spacingTop=-1;spacingLeft=3;spacingRight=3;rotatable=0;labelPosition=right;points=[];portConstraint=eastwest;strokeColor=inherit;" vertex="1" parent="kXg24N_eneEXeIf3qhJb-44">
          <mxGeometry y="175.1" width="258" height="8" as="geometry" />
        </mxCell>
        <mxCell id="kXg24N_eneEXeIf3qhJb-52" value="+create() : : bool" style="text;strokeColor=none;fillColor=none;align=left;verticalAlign=top;spacingLeft=4;spacingRight=4;overflow=hidden;rotatable=0;points=[[0,0.5],[1,0.5]];portConstraint=eastwest;" vertex="1" parent="kXg24N_eneEXeIf3qhJb-44">
          <mxGeometry y="183.1" width="258" height="25" as="geometry" />
        </mxCell>
        <mxCell id="kXg24N_eneEXeIf3qhJb-53" value="+edit(title, content, tags) : : bool" style="text;strokeColor=none;fillColor=none;align=left;verticalAlign=top;spacingLeft=4;spacingRight=4;overflow=hidden;rotatable=0;points=[[0,0.5],[1,0.5]];portConstraint=eastwest;" vertex="1" parent="kXg24N_eneEXeIf3qhJb-44">
          <mxGeometry y="208.1" width="258" height="25" as="geometry" />
        </mxCell>
        <mxCell id="kXg24N_eneEXeIf3qhJb-54" value="+delete() : : bool" style="text;strokeColor=none;fillColor=none;align=left;verticalAlign=top;spacingLeft=4;spacingRight=4;overflow=hidden;rotatable=0;points=[[0,0.5],[1,0.5]];portConstraint=eastwest;" vertex="1" parent="kXg24N_eneEXeIf3qhJb-44">
          <mxGeometry y="233.1" width="258" height="25" as="geometry" />
        </mxCell>
        <mxCell id="kXg24N_eneEXeIf3qhJb-55" value="BlogPostController" style="swimlane;fontStyle=1;align=center;verticalAlign=top;childLayout=stackLayout;horizontal=1;startSize=25.272727272727273;horizontalStack=0;resizeParent=1;resizeParentMax=0;resizeLast=0;collapsible=0;marginBottom=0;" vertex="1" parent="1">
          <mxGeometry x="1902" y="515" width="312" height="133.27272727272728" as="geometry" />
        </mxCell>
        <mxCell id="kXg24N_eneEXeIf3qhJb-56" style="line;strokeWidth=1;fillColor=none;align=left;verticalAlign=middle;spacingTop=-1;spacingLeft=3;spacingRight=3;rotatable=0;labelPosition=right;points=[];portConstraint=eastwest;strokeColor=inherit;" vertex="1" parent="kXg24N_eneEXeIf3qhJb-55">
          <mxGeometry y="25.272727272727273" width="312" height="8" as="geometry" />
        </mxCell>
        <mxCell id="kXg24N_eneEXeIf3qhJb-57" value="+createPost(userID, BlogPost) : : BlogPost" style="text;strokeColor=none;fillColor=none;align=left;verticalAlign=top;spacingLeft=4;spacingRight=4;overflow=hidden;rotatable=0;points=[[0,0.5],[1,0.5]];portConstraint=eastwest;" vertex="1" parent="kXg24N_eneEXeIf3qhJb-55">
          <mxGeometry y="33.27272727272727" width="312" height="25" as="geometry" />
        </mxCell>
        <mxCell id="kXg24N_eneEXeIf3qhJb-58" value="+getPost(id) : : BlogPost" style="text;strokeColor=none;fillColor=none;align=left;verticalAlign=top;spacingLeft=4;spacingRight=4;overflow=hidden;rotatable=0;points=[[0,0.5],[1,0.5]];portConstraint=eastwest;" vertex="1" parent="kXg24N_eneEXeIf3qhJb-55">
          <mxGeometry y="58.27272727272727" width="312" height="25" as="geometry" />
        </mxCell>
        <mxCell id="kXg24N_eneEXeIf3qhJb-59" value="+updatePost(BlogPost) : : bool" style="text;strokeColor=none;fillColor=none;align=left;verticalAlign=top;spacingLeft=4;spacingRight=4;overflow=hidden;rotatable=0;points=[[0,0.5],[1,0.5]];portConstraint=eastwest;" vertex="1" parent="kXg24N_eneEXeIf3qhJb-55">
          <mxGeometry y="83.27272727272728" width="312" height="25" as="geometry" />
        </mxCell>
        <mxCell id="kXg24N_eneEXeIf3qhJb-60" value="+deletePost(id) : : bool" style="text;strokeColor=none;fillColor=none;align=left;verticalAlign=top;spacingLeft=4;spacingRight=4;overflow=hidden;rotatable=0;points=[[0,0.5],[1,0.5]];portConstraint=eastwest;" vertex="1" parent="kXg24N_eneEXeIf3qhJb-55">
          <mxGeometry y="108.27272727272728" width="312" height="25" as="geometry" />
        </mxCell>
        <mxCell id="kXg24N_eneEXeIf3qhJb-61" value="Text" style="swimlane;fontStyle=1;align=center;verticalAlign=top;childLayout=stackLayout;horizontal=1;startSize=25.91111077202691;horizontalStack=0;resizeParent=1;resizeParentMax=0;resizeLast=0;collapsible=0;marginBottom=0;" vertex="1" parent="1">
          <mxGeometry x="1743" y="20" width="98" height="111.91111077202692" as="geometry" />
        </mxCell>
        <mxCell id="kXg24N_eneEXeIf3qhJb-62" style="line;strokeWidth=1;fillColor=none;align=left;verticalAlign=middle;spacingTop=-1;spacingLeft=3;spacingRight=3;rotatable=0;labelPosition=right;points=[];portConstraint=eastwest;strokeColor=inherit;" vertex="1" parent="kXg24N_eneEXeIf3qhJb-61">
          <mxGeometry y="25.91111077202691" width="98" height="8" as="geometry" />
        </mxCell>
        <mxCell id="kXg24N_eneEXeIf3qhJb-63" value="+highlight()" style="text;strokeColor=none;fillColor=none;align=left;verticalAlign=top;spacingLeft=4;spacingRight=4;overflow=hidden;rotatable=0;points=[[0,0.5],[1,0.5]];portConstraint=eastwest;" vertex="1" parent="kXg24N_eneEXeIf3qhJb-61">
          <mxGeometry y="33.91111077202691" width="98" height="26" as="geometry" />
        </mxCell>
        <mxCell id="kXg24N_eneEXeIf3qhJb-64" value="+bold()" style="text;strokeColor=none;fillColor=none;align=left;verticalAlign=top;spacingLeft=4;spacingRight=4;overflow=hidden;rotatable=0;points=[[0,0.5],[1,0.5]];portConstraint=eastwest;" vertex="1" parent="kXg24N_eneEXeIf3qhJb-61">
          <mxGeometry y="59.91111077202691" width="98" height="26" as="geometry" />
        </mxCell>
        <mxCell id="kXg24N_eneEXeIf3qhJb-65" value="+font()" style="text;strokeColor=none;fillColor=none;align=left;verticalAlign=top;spacingLeft=4;spacingRight=4;overflow=hidden;rotatable=0;points=[[0,0.5],[1,0.5]];portConstraint=eastwest;" vertex="1" parent="kXg24N_eneEXeIf3qhJb-61">
          <mxGeometry y="85.91111077202692" width="98" height="26" as="geometry" />
        </mxCell>
        <mxCell id="kXg24N_eneEXeIf3qhJb-66" value="Audio" style="swimlane;fontStyle=1;align=center;verticalAlign=top;childLayout=stackLayout;horizontal=1;startSize=26.91428484235491;horizontalStack=0;resizeParent=1;resizeParentMax=0;resizeLast=0;collapsible=0;marginBottom=0;" vertex="1" parent="1">
          <mxGeometry x="1891" y="31" width="67" height="88.9142848423549" as="geometry" />
        </mxCell>
        <mxCell id="kXg24N_eneEXeIf3qhJb-67" style="line;strokeWidth=1;fillColor=none;align=left;verticalAlign=middle;spacingTop=-1;spacingLeft=3;spacingRight=3;rotatable=0;labelPosition=right;points=[];portConstraint=eastwest;strokeColor=inherit;" vertex="1" parent="kXg24N_eneEXeIf3qhJb-66">
          <mxGeometry y="26.91428484235491" width="67" height="8" as="geometry" />
        </mxCell>
        <mxCell id="kXg24N_eneEXeIf3qhJb-68" value="+crop()" style="text;strokeColor=none;fillColor=none;align=left;verticalAlign=top;spacingLeft=4;spacingRight=4;overflow=hidden;rotatable=0;points=[[0,0.5],[1,0.5]];portConstraint=eastwest;" vertex="1" parent="kXg24N_eneEXeIf3qhJb-66">
          <mxGeometry y="34.91428484235491" width="67" height="27" as="geometry" />
        </mxCell>
        <mxCell id="kXg24N_eneEXeIf3qhJb-69" value="+edit()" style="text;strokeColor=none;fillColor=none;align=left;verticalAlign=top;spacingLeft=4;spacingRight=4;overflow=hidden;rotatable=0;points=[[0,0.5],[1,0.5]];portConstraint=eastwest;" vertex="1" parent="kXg24N_eneEXeIf3qhJb-66">
          <mxGeometry y="61.91428484235491" width="67" height="27" as="geometry" />
        </mxCell>
        <mxCell id="kXg24N_eneEXeIf3qhJb-70" value="Video" style="swimlane;fontStyle=1;align=center;verticalAlign=top;childLayout=stackLayout;horizontal=1;startSize=25.91111077202691;horizontalStack=0;resizeParent=1;resizeParentMax=0;resizeLast=0;collapsible=0;marginBottom=0;" vertex="1" parent="1">
          <mxGeometry x="2007" y="20" width="81" height="111.91111077202692" as="geometry" />
        </mxCell>
        <mxCell id="kXg24N_eneEXeIf3qhJb-71" style="line;strokeWidth=1;fillColor=none;align=left;verticalAlign=middle;spacingTop=-1;spacingLeft=3;spacingRight=3;rotatable=0;labelPosition=right;points=[];portConstraint=eastwest;strokeColor=inherit;" vertex="1" parent="kXg24N_eneEXeIf3qhJb-70">
          <mxGeometry y="25.91111077202691" width="81" height="8" as="geometry" />
        </mxCell>
        <mxCell id="kXg24N_eneEXeIf3qhJb-72" value="+crop()" style="text;strokeColor=none;fillColor=none;align=left;verticalAlign=top;spacingLeft=4;spacingRight=4;overflow=hidden;rotatable=0;points=[[0,0.5],[1,0.5]];portConstraint=eastwest;" vertex="1" parent="kXg24N_eneEXeIf3qhJb-70">
          <mxGeometry y="33.91111077202691" width="81" height="26" as="geometry" />
        </mxCell>
        <mxCell id="kXg24N_eneEXeIf3qhJb-73" value="+edit()" style="text;strokeColor=none;fillColor=none;align=left;verticalAlign=top;spacingLeft=4;spacingRight=4;overflow=hidden;rotatable=0;points=[[0,0.5],[1,0.5]];portConstraint=eastwest;" vertex="1" parent="kXg24N_eneEXeIf3qhJb-70">
          <mxGeometry y="59.91111077202691" width="81" height="26" as="geometry" />
        </mxCell>
        <mxCell id="kXg24N_eneEXeIf3qhJb-74" value="+delete()" style="text;strokeColor=none;fillColor=none;align=left;verticalAlign=top;spacingLeft=4;spacingRight=4;overflow=hidden;rotatable=0;points=[[0,0.5],[1,0.5]];portConstraint=eastwest;" vertex="1" parent="kXg24N_eneEXeIf3qhJb-70">
          <mxGeometry y="85.91111077202692" width="81" height="26" as="geometry" />
        </mxCell>
        <mxCell id="kXg24N_eneEXeIf3qhJb-75" value="" style="curved=1;startArrow=block;startSize=16;startFill=0;endArrow=none;exitX=0;exitY=0.72;entryX=0.5;entryY=0;rounded=0;" edge="1" parent="1" source="kXg24N_eneEXeIf3qhJb-1" target="kXg24N_eneEXeIf3qhJb-11">
          <mxGeometry relative="1" as="geometry">
            <Array as="points">
              <mxPoint x="107" y="479" />
            </Array>
          </mxGeometry>
        </mxCell>
        <mxCell id="kXg24N_eneEXeIf3qhJb-76" value="" style="curved=1;startArrow=block;startSize=16;startFill=0;endArrow=none;exitX=0;exitY=0.85;entryX=0.5;entryY=0;rounded=0;" edge="1" parent="1" source="kXg24N_eneEXeIf3qhJb-1" target="kXg24N_eneEXeIf3qhJb-14">
          <mxGeometry relative="1" as="geometry">
            <Array as="points">
              <mxPoint x="326" y="479" />
            </Array>
          </mxGeometry>
        </mxCell>
        <mxCell id="kXg24N_eneEXeIf3qhJb-77" value="" style="curved=1;startArrow=block;startSize=16;startFill=0;endArrow=none;exitX=0.19;exitY=1;entryX=0.5;entryY=0;rounded=0;" edge="1" parent="1" source="kXg24N_eneEXeIf3qhJb-1" target="kXg24N_eneEXeIf3qhJb-17">
          <mxGeometry relative="1" as="geometry">
            <Array as="points">
              <mxPoint x="531" y="479" />
            </Array>
          </mxGeometry>
        </mxCell>
        <mxCell id="kXg24N_eneEXeIf3qhJb-78" value="" style="curved=1;startArrow=diamondThin;startSize=14;startFill=1;endArrow=none;exitX=0.5;exitY=1;entryX=0.2;entryY=0;rounded=0;" edge="1" parent="1" source="kXg24N_eneEXeIf3qhJb-1" target="kXg24N_eneEXeIf3qhJb-20">
          <mxGeometry relative="1" as="geometry">
            <Array as="points">
              <mxPoint x="695" y="479" />
            </Array>
          </mxGeometry>
        </mxCell>
        <mxCell id="kXg24N_eneEXeIf3qhJb-79" value="" style="curved=1;startArrow=diamondThin;startSize=14;startFill=0;endArrow=none;exitX=1;exitY=0.88;entryX=0.13;entryY=0;rounded=0;" edge="1" parent="1" source="kXg24N_eneEXeIf3qhJb-1" target="kXg24N_eneEXeIf3qhJb-27">
          <mxGeometry relative="1" as="geometry">
            <Array as="points">
              <mxPoint x="1035" y="479" />
            </Array>
          </mxGeometry>
        </mxCell>
        <mxCell id="kXg24N_eneEXeIf3qhJb-80" value="" style="curved=1;startArrow=diamondThin;startSize=14;startFill=0;endArrow=none;exitX=1;exitY=0.64;entryX=0.5;entryY=0;rounded=0;" edge="1" parent="1" source="kXg24N_eneEXeIf3qhJb-1" target="kXg24N_eneEXeIf3qhJb-32">
          <mxGeometry relative="1" as="geometry">
            <Array as="points">
              <mxPoint x="1624" y="479" />
            </Array>
          </mxGeometry>
        </mxCell>
        <mxCell id="kXg24N_eneEXeIf3qhJb-81" value="" style="curved=1;startArrow=diamondThin;startSize=14;startFill=1;endArrow=none;exitX=0.5;exitY=1;entryX=0.5;entryY=0;rounded=0;" edge="1" parent="1" source="kXg24N_eneEXeIf3qhJb-27" target="kXg24N_eneEXeIf3qhJb-36">
          <mxGeometry relative="1" as="geometry">
            <Array as="points" />
          </mxGeometry>
        </mxCell>
        <mxCell id="kXg24N_eneEXeIf3qhJb-82" value="" style="curved=1;startArrow=diamondThin;startSize=14;startFill=0;endArrow=none;exitX=0.91;exitY=0;entryX=1;entryY=0.68;rounded=0;" edge="1" parent="1" source="kXg24N_eneEXeIf3qhJb-27" target="kXg24N_eneEXeIf3qhJb-1">
          <mxGeometry relative="1" as="geometry">
            <Array as="points">
              <mxPoint x="1407" y="479" />
            </Array>
          </mxGeometry>
        </mxCell>
        <mxCell id="kXg24N_eneEXeIf3qhJb-83" value="" style="curved=1;startArrow=diamondThin;startSize=14;startFill=1;endArrow=none;exitX=0.5;exitY=1;entryX=0.5;entryY=0;rounded=0;" edge="1" parent="1" source="kXg24N_eneEXeIf3qhJb-20" target="kXg24N_eneEXeIf3qhJb-40">
          <mxGeometry relative="1" as="geometry">
            <Array as="points" />
          </mxGeometry>
        </mxCell>
        <mxCell id="kXg24N_eneEXeIf3qhJb-84" value="" style="curved=1;startArrow=block;startSize=16;startFill=0;endArrow=none;exitX=0;exitY=0.57;entryX=0.52;entryY=0;rounded=0;" edge="1" parent="1" source="kXg24N_eneEXeIf3qhJb-44" target="kXg24N_eneEXeIf3qhJb-20">
          <mxGeometry relative="1" as="geometry">
            <Array as="points">
              <mxPoint x="849" y="479" />
            </Array>
          </mxGeometry>
        </mxCell>
        <mxCell id="kXg24N_eneEXeIf3qhJb-85" value="" style="curved=1;startArrow=diamondThin;startSize=14;startFill=1;endArrow=none;exitX=0.7;exitY=1;entryX=0.48;entryY=0;rounded=0;" edge="1" parent="1" source="kXg24N_eneEXeIf3qhJb-44" target="kXg24N_eneEXeIf3qhJb-55">
          <mxGeometry relative="1" as="geometry">
            <Array as="points">
              <mxPoint x="2048" y="479" />
            </Array>
          </mxGeometry>
        </mxCell>
        <mxCell id="kXg24N_eneEXeIf3qhJb-86" value="" style="curved=1;startArrow=diamondThin;startSize=14;startFill=0;endArrow=none;exitX=0.52;exitY=0;entryX=0.77;entryY=1;rounded=0;" edge="1" parent="1" source="kXg24N_eneEXeIf3qhJb-55" target="kXg24N_eneEXeIf3qhJb-44">
          <mxGeometry relative="1" as="geometry">
            <Array as="points">
              <mxPoint x="2068" y="479" />
            </Array>
          </mxGeometry>
        </mxCell>
        <mxCell id="kXg24N_eneEXeIf3qhJb-87" value="" style="curved=1;startArrow=block;startSize=16;startFill=0;endArrow=none;exitX=0.5;exitY=1;entryX=0;entryY=0.1;rounded=0;" edge="1" parent="1" source="kXg24N_eneEXeIf3qhJb-61" target="kXg24N_eneEXeIf3qhJb-44">
          <mxGeometry relative="1" as="geometry">
            <Array as="points">
              <mxPoint x="1792" y="170" />
            </Array>
          </mxGeometry>
        </mxCell>
        <mxCell id="kXg24N_eneEXeIf3qhJb-88" value="" style="curved=1;startArrow=block;startSize=16;startFill=0;endArrow=none;exitX=0.49;exitY=1;entryX=0.3;entryY=0;rounded=0;" edge="1" parent="1" source="kXg24N_eneEXeIf3qhJb-66" target="kXg24N_eneEXeIf3qhJb-44">
          <mxGeometry relative="1" as="geometry">
            <Array as="points">
              <mxPoint x="1924" y="170" />
            </Array>
          </mxGeometry>
        </mxCell>
        <mxCell id="kXg24N_eneEXeIf3qhJb-89" value="" style="curved=1;startArrow=block;startSize=16;startFill=0;endArrow=none;exitX=0.51;exitY=1;entryX=0.7;entryY=0;rounded=0;" edge="1" parent="1" source="kXg24N_eneEXeIf3qhJb-70" target="kXg24N_eneEXeIf3qhJb-44">
          <mxGeometry relative="1" as="geometry">
            <Array as="points">
              <mxPoint x="2048" y="170" />
            </Array>
          </mxGeometry>
        </mxCell>
      </root>
    </mxGraphModel>
  </diagram>
</mxfile>
